<svg width="640" height="360" viewBox="0 0 640 360" fill="none" xmlns="http://www.w3.org/2000/svg">
  <rect width="640" height="360" rx="24" fill="#0F172A"/>
  <rect width="640" height="360" rx="24" fill="url(#paint0_linear)" fill-opacity="0.4"/>
  <path d="M140 220C140 196.804 158.804 178 182 178H456C479.196 178 498 196.804 498 220V244H140V220Z" fill="white" fill-opacity="0.1"/>
  <path d="M206 196H430L466 232H170L206 196Z" stroke="#F87171" stroke-width="4" stroke-linecap="round" stroke-linejoin="round"/>
  <circle cx="216" cy="244" r="28" fill="#0F172A" stroke="#F8FAFC" stroke-width="6"/>
  <circle cx="420" cy="244" r="28" fill="#0F172A" stroke="#F8FAFC" stroke-width="6"/>
  <path d="M170 232H134C121.85 232 112 241.85 112 254V262" stroke="#F1F5F9" stroke-width="6" stroke-linecap="round"/>
  <path d="M470 232H506C518.15 232 528 241.85 528 254V262" stroke="#F1F5F9" stroke-width="6" stroke-linecap="round"/>
  <path d="M224 172C233.941 152.118 254.407 139 276.987 139H358.013C380.593 139 401.059 152.118 411 172" stroke="#F8FAFC" stroke-width="6" stroke-linecap="round"/>
  <defs>
    <linearGradient id="paint0_linear" x1="0" y1="0" x2="640" y2="360" gradientUnits="userSpaceOnUse">
      <stop stop-color="#F43F5E"/>
      <stop offset="1" stop-color="#FB7185" stop-opacity="0.8"/>
    </linearGradient>
  </defs>
</svg>
